<svg id="Layer_1" data-name="Layer 1" xmlns="http://www.w3.org/2000/svg" viewBox="0 0 2190.23 234.24"><defs><style>.cls-1{fill:#fff;}</style></defs><path class="cls-1" d="M1.68,6.51H77.2V172H178.32v58.56H1.68Z" transform="translate(-1.68 -1.39)"/><path class="cls-1" d="M199.12,6.51h75.52v224H199.12Z" transform="translate(-1.68 -1.39)"/><path class="cls-1" d="M363,220.75a111.15,111.15,0,0,1-44.64-41.6q-16.17-26.72-16.16-60.64t16.16-60.64A111.22,111.22,0,0,1,363,16.27Q391.43,1.39,427,1.39q32.64,0,58.24,11.52a108.26,108.26,0,0,1,42.24,33.28L479.76,88.75Q459,62.52,430.8,62.51q-23.68,0-38.08,15.2t-14.4,40.8q0,25.61,14.4,40.8t38.08,15.2q28.15,0,49-26.24l47.68,42.56a108.16,108.16,0,0,1-42.24,33.28Q459.6,235.63,427,235.63,391.44,235.63,363,220.75Z" transform="translate(-1.68 -1.39)"/><path class="cls-1" d="M770,6.51v224H694.47V148H624.71v82.56H549.19V6.51h75.52V85.87h69.76V6.51Z" transform="translate(-1.68 -1.39)"/><path class="cls-1" d="M855.11,65.07h-65.6V6.51H996.23V65.07h-65.6V230.51H855.11Z" transform="translate(-1.68 -1.39)"/><path class="cls-1" d="M1215.75,230.51l-.64-102.08-48.64,81.92h-33.28L1084.55,132v98.56h-68.8V6.51h62.08l73,119.36,71-119.36h62.08l.64,224Z" transform="translate(-1.68 -1.39)"/><path class="cls-1" d="M1473.66,191.47h-85.12l-15,39h-76.8l97.92-224h74.24l97.92,224H1488.7Zm-20.8-54.4L1431.1,80.75l-21.76,56.32Z" transform="translate(-1.68 -1.39)"/><path class="cls-1" d="M1799.74,6.51v224h-62.08l-85.12-101.76V230.51h-73.6V6.51H1641l85.12,101.76V6.51Z" transform="translate(-1.68 -1.39)"/><path class="cls-1" d="M1926.6,142.3l22,22-67.44,67.44-17.43-17.43,2.28-58.54q.24-7.69-1.08-11.66a16.19,16.19,0,0,0-3.85-6.49,8.46,8.46,0,0,0-7-2.77q-3.84.38-7.81,4.33a19.28,19.28,0,0,0-5.17,9.26,19,19,0,0,0,.6,10.94l-32.1,10.69a49.75,49.75,0,0,1-.18-28.31q4-14.48,17.13-27.58a64,64,0,0,1,20.92-14.43A39.13,39.13,0,0,1,1868.78,97a32.64,32.64,0,0,1,18.15,9.49,41.79,41.79,0,0,1,10.1,16q3.12,9,2.28,25.25l-1.08,23Z" transform="translate(-1.68 -1.39)"/><path class="cls-1" d="M1969.39,136.89q-13.83,3.36-28.61-1.68t-28.49-18.76q-13.69-13.7-18.75-28.49a50.23,50.23,0,0,1-1.69-28.61q3.38-13.82,14.55-25t25-14.55A50.23,50.23,0,0,1,1960,21.49q14.79,5,28.49,18.75t18.76,28.49q5,14.79,1.68,28.61t-14.55,25Q1983.22,133.53,1969.39,136.89ZM1960,68.73q-21.27-21.27-30.89-11.66T1940.78,88q21.27,21.29,30.89,11.66T1960,68.73Z" transform="translate(-1.68 -1.39)"/><path class="cls-1" d="M2108.23,138.89l22,22-67.44,67.44-17.43-17.43,2.28-58.55q.24-7.68-1.08-11.66a16.19,16.19,0,0,0-3.85-6.49,8.44,8.44,0,0,0-7-2.76q-3.84.36-7.81,4.33a19.25,19.25,0,0,0-5.17,9.25,19,19,0,0,0,.6,10.94l-32.1,10.7a49.75,49.75,0,0,1-.18-28.31q4-14.49,17.13-27.59a63.87,63.87,0,0,1,20.92-14.42,39,39,0,0,1,21.28-2.77,32.59,32.59,0,0,1,18.15,9.5,41.79,41.79,0,0,1,10.1,16q3.12,9,2.28,25.24l-1.08,23Z" transform="translate(-1.68 -1.39)"/><path class="cls-1" d="M2151,133.48q-13.83,3.38-28.61-1.68t-28.49-18.75q-13.7-13.71-18.75-28.49T2073.49,56q3.36-13.83,14.54-25t25-14.54a50.35,50.35,0,0,1,28.62,1.68q14.78,5.06,28.48,18.75t18.76,28.49q5,14.79,1.68,28.61t-14.55,25Q2164.85,130.12,2151,133.48Zm-9.38-68.16q-21.27-21.27-30.89-11.66t11.66,30.9q21.27,21.27,30.89,11.66T2141.64,65.32Z" transform="translate(-1.68 -1.39)"/></svg>